<svg id="svg" version="1.1" xmlns="http://www.w3.org/2000/svg" xmlns:xlink="http://www.w3.org/1999/xlink" width="400" height="400" viewBox="0, 0, 400,400">
	<style>
    path { fill: #358efe; }
    @media (prefers-color-scheme: dark) {
      path { fill: #d5a467; }
    }
  </style>
	<g id="svgg"><path id="path0" d="M172.944 6.818 C 143.834 21.053,41.030 81.763,33.705 89.044 C 19.109 103.553,19.000 104.374,19.000 200.000 C 19.000 315.019,11.580 301.419,103.284 354.487 C 202.292 411.782,197.772 411.104,255.852 377.362 C 272.983 367.409,302.750 350.368,322.000 339.491 C 384.124 304.392,380.821 311.937,381.602 203.363 C 382.456 84.744,390.404 98.976,291.942 42.823 C 205.827 -6.288,202.071 -7.425,172.944 6.818 M185.416 59.354 C 190.585 67.242,192.189 169.362,187.262 176.881 C 183.596 182.475,166.226 194.057,132.486 213.405 C 102.462 230.621,100.000 233.056,100.000 245.527 C 100.000 259.895,98.719 258.842,148.000 284.963 C 163.950 293.417,178.125 301.781,179.500 303.549 C 181.924 306.667,183.311 350.000,180.987 350.000 C 179.348 350.000,135.864 325.099,96.522 301.632 C 54.401 276.507,57.641 281.565,58.426 242.157 L 59.000 213.313 100.000 189.953 L 141.000 166.593 141.566 144.297 C 141.877 132.033,141.550 122.000,140.840 122.000 C 140.129 122.000,131.775 126.381,122.274 131.735 C 104.565 141.715,60.886 164.000,59.033 164.000 C 58.465 164.000,58.000 154.564,58.000 143.032 C 58.000 115.429,56.453 116.900,122.000 82.157 C 179.430 51.717,180.225 51.431,185.416 59.354 M301.000 98.585 C 316.400 108.418,331.025 118.316,333.500 120.580 L 338.000 124.697 337.971 197.849 C 337.937 282.057,338.976 277.019,318.906 290.275 C 301.270 301.922,222.506 347.019,216.622 348.839 C 208.354 351.395,207.923 346.835,208.477 262.588 L 209.000 183.000 230.000 183.000 L 251.000 183.000 251.537 229.623 L 252.074 276.246 256.537 274.860 C 266.930 271.631,291.944 257.756,294.849 253.609 C 297.526 249.786,298.000 241.071,298.000 195.648 C 298.000 134.098,301.001 142.511,273.403 126.692 C 254.884 116.077,254.000 114.344,254.000 88.680 L 254.000 69.620 263.500 75.163 C 268.725 78.212,285.600 88.752,301.000 98.585 " stroke="none" fill-rule="evenodd"></path></g>
</svg>